<?xml version="1.0" encoding="UTF-8"?>
<svg width="163px" height="30px" viewBox="0 0 163 30" version="1.1" xmlns="http://www.w3.org/2000/svg" xmlns:xlink="http://www.w3.org/1999/xlink">
    <title>logo</title>
    <defs>
        <polygon id="path-1" points="8.05369128e-05 -1.42108547e-14 20.9915436 -1.42108547e-14 20.9915436 23.9968714 8.05369128e-05 23.9968714"></polygon>
    </defs>
    <g id="logo" stroke="none" stroke-width="1" fill="none" fill-rule="evenodd">
        <g id="logo-侧面" transform="translate(29.000000, 3.000000)">
            <path d="M34.0965759,6.03703704 C36.7166467,6.03703704 38.6188898,7.37037037 39.067532,9.62962963 L36.1603303,10.2407407 C35.944982,9.07407407 35.0118061,8.5 34.0606846,8.5 C33.0736716,8.5 32.4455725,9.05555556 32.4455725,9.75925926 C32.4455725,10.2592593 32.6609207,10.6296296 33.4146397,10.7962963 L35.9090906,11.3703704 C37.9907906,11.8518519 39.2110976,13.0185185 39.2110976,14.9814815 C39.2110976,17.6296296 36.9319949,19 34.2580871,19 C31.548288,19 29.3230224,17.6666667 29,15.2407407 L32.0507673,14.6296296 C32.355844,15.9074074 33.2172371,16.462963 34.4195984,16.462963 C35.5322311,16.462963 36.1962217,15.9444444 36.1962217,15.1851852 C36.1962217,14.6296296 35.944982,14.2777778 35.0835889,14.0925926 L32.5711923,13.537037 C30.8484061,13.1296296 29.3409681,12.2037037 29.3409681,9.94444444 C29.3409681,7.53703704 31.2791026,6.03703704 34.0965759,6.03703704 Z M50.7441948,9.42592593 L50.7441948,18.7222222 L47.8728844,18.7222222 L47.8728844,17.9814815 C47.1730025,18.6296296 46.2398266,19 45.0733568,19 C42.68658,19 40.6766628,17.0185185 40.6766628,14.0740741 C40.6766628,11.1481481 42.68658,9.14814815 45.0733568,9.14814815 C46.2398266,9.14814815 47.1730025,9.51851852 47.8728844,10.1666667 L47.8728844,9.42592593 L50.7441948,9.42592593 Z M45.6655646,16.4814815 C46.8320344,16.4814815 47.8728844,15.5185185 47.8728844,14.0740741 C47.8728844,12.6481481 46.8320344,11.6666667 45.6655646,11.6666667 C44.4093663,11.6666667 43.4941361,12.6481481 43.4941361,14.0740741 C43.4941361,15.5185185 44.4093663,16.4814815 45.6655646,16.4814815 Z M64.7896887,9.14814815 C66.7098775,9.14814815 68.2352611,10.6481481 68.2352611,12.9074074 L68.2352611,18.7222222 L65.3818964,18.7222222 L65.3818964,13.537037 C65.3818964,12.4814815 64.7179059,11.8148148 63.8744585,11.8148148 C62.8156628,11.8148148 62.1157809,12.6111111 62.1157809,14.1666667 L62.1157809,18.7222222 L59.2444705,18.7222222 L59.2444705,13.537037 C59.2444705,12.4814815 58.5804799,11.8148148 57.7190868,11.8148148 C56.6782368,11.8148148 55.9963006,12.6111111 55.9963006,14.1666667 L55.9963006,18.7222222 L53.1249902,18.7222222 L53.1249902,9.42592593 L55.9963006,9.42592593 L55.9963006,10.2777778 C56.6064541,9.57407407 57.4857929,9.14814815 58.6522627,9.14814815 C59.908461,9.14814815 60.9852024,9.7037037 61.5953559,10.7222222 C62.3131835,9.75925926 63.3899248,9.14814815 64.7896887,9.14814815 Z M79.4273903,9.42592593 L79.4273903,18.7222222 L76.5560799,18.7222222 L76.5560799,17.8333333 C75.8741437,18.5740741 74.9230221,19 73.7924436,19 C71.6927979,19 70.2930341,17.462963 70.2930341,15.1296296 L70.2930341,9.42592593 L73.1463988,9.42592593 L73.1463988,14.5 C73.1463988,15.5925926 73.7744979,16.3333333 74.6897281,16.3333333 C75.8203066,16.3333333 76.5560799,15.537037 76.5560799,13.7407407 L76.5560799,9.42592593 L79.4273903,9.42592593 Z M87.7841004,9.2962963 C88.0353401,9.2962963 88.214797,9.31481481 88.4301452,9.37037037 L88.3045254,12.3333333 L87.7841004,12.3333333 C85.7741831,12.3333333 84.6794961,13.4074074 84.6794961,15.8148148 L84.6794961,18.7222222 L81.8081857,18.7222222 L81.8081857,9.42592593 L84.6794961,9.42592593 L84.6794961,11.2037037 C85.3255409,10.0925926 86.3125538,9.2962963 87.7841004,9.2962963 Z M99.3710347,9.42592593 L99.3710347,18.7222222 L96.4997243,18.7222222 L96.4997243,17.9814815 C95.7998424,18.6296296 94.8666666,19 93.7001967,19 C91.31342,19 89.3035027,17.0185185 89.3035027,14.0740741 C89.3035027,11.1481481 91.31342,9.14814815 93.7001967,9.14814815 C94.8666666,9.14814815 95.7998424,9.51851852 96.4997243,10.1666667 L96.4997243,9.42592593 L99.3710347,9.42592593 Z M94.2924045,16.4814815 C95.4588743,16.4814815 96.4997243,15.5185185 96.4997243,14.0740741 C96.4997243,12.6481481 95.4588743,11.6666667 94.2924045,11.6666667 C93.0362062,11.6666667 92.120976,12.6481481 92.120976,14.0740741 C92.120976,15.5185185 93.0362062,16.4814815 94.2924045,16.4814815 Z M103.331051,5 C104.300118,5 105,5.77777778 105,6.68518519 C105,7.62962963 104.300118,8.33333333 103.331051,8.33333333 C102.361984,8.33333333 101.680047,7.62962963 101.680047,6.68518519 C101.680047,5.77777778 102.361984,5 103.331051,5 Z M104.766706,18.7222222 L101.895396,18.7222222 L101.895396,9.42592593 L104.766706,9.42592593 L104.766706,18.7222222 Z" id="Samurai" fill="#122039"></path>
            <g id="logo白">
                <g id="Group-3" transform="translate(0.500000, 0.000000)">
                    <mask id="mask-2" fill="white">
                        <use xlink:href="#path-1"></use>
                    </mask>
                    <g id="Clip-2"></g>
                    <path d="M18.3049128,8.29992453 L18.3049128,16.650319 L11.230953,20.8256192 L11.230953,23.9968714 L19.8922953,18.8848302 C20.5706174,18.4842813 20.9916242,17.7391698 20.9916242,16.9384837 L20.9916242,6.71419554 L18.3049128,8.29992453 Z M2.6865906,8.29992453 L8.05369128e-05,6.71419554 L8.05369128e-05,16.9384837 C8.05369128e-05,17.7391698 0.420885906,18.4842813 1.09920805,18.8848302 L9.76034899,23.9968714 L9.76034899,20.8256192 L2.6865906,16.650319 L2.6865906,8.29992453 Z M10.4958523,2.82273756 L17.5698121,6.99803774 L20.2561208,5.41230875 L11.5949799,0.300267581 C10.9166577,-0.100281304 10.0748456,-0.100281304 9.39652349,0.300267581 L0.735181208,5.41230875 L3.42189262,6.99803774 L10.4958523,2.82273756 Z" id="Fill-1" fill="#122039" mask="url(#mask-2)"></path>
                    <path d="M13.4128993,6.27577358 L10.4958523,7.99755746 L7.57820134,6.27577358 L4.89189262,7.86129674 L9.39672483,10.5202333 C10.075047,10.9203705 10.9168591,10.9203705 11.5949799,10.5202333 L16.0996107,7.86150257 L13.4128993,6.27577358 Z" id="Path" fill="#FCB811" mask="url(#mask-2)"></path>
                    <path d="M11.230953,19.0902504 L13.9174631,17.5047273 L13.9174631,14.0609537 L16.8347114,12.3391698 L16.8347114,9.16771184 L12.3300805,11.8264425 C11.6517584,12.2267856 11.230953,12.9718971 11.230953,13.772789 L11.230953,19.0902504 Z" id="Path" fill="#00BEDE" mask="url(#mask-2)"></path>
                    <path d="M4.15679195,12.3391698 L7.07404027,14.0609537 L7.07404027,17.5047273 L9.76034899,19.0902504 L9.76034899,13.772789 C9.76034899,12.9718971 9.33974497,12.2267856 8.66122148,11.8264425 L4.15679195,9.16771184 L4.15679195,12.3391698 Z" id="Path" fill="#EC0A6E" mask="url(#mask-2)"></path>
                </g>
            </g>
        </g>
    </g>
</svg>