<?xml version="1.0" encoding="UTF-8"?>
<svg width="128px" height="128px" viewBox="0 0 128 128" version="1.1" xmlns="http://www.w3.org/2000/svg" xmlns:xlink="http://www.w3.org/1999/xlink">
    <title>128*128</title>
    <defs>
        <polygon id="path-1" points="0.000402684564 -7.10542736e-14 104.957718 -7.10542736e-14 104.957718 119.984357 0.000402684564 119.984357"></polygon>
    </defs>
    <g id="128*128" stroke="none" stroke-width="1" fill="none" fill-rule="evenodd">
        <g id="Group-3" transform="translate(11.000000, 4.000000)">
            <mask id="mask-2" fill="white">
                <use xlink:href="#path-1"></use>
            </mask>
            <g id="Clip-2"></g>
            <path d="M91.5245638,41.4996226 L91.5245638,83.2515952 L56.1547651,104.128096 L56.1547651,119.984357 L99.4614765,94.4241509 C102.853087,92.4214065 104.958121,88.6958491 104.958121,84.6924185 L104.958121,33.5709777 L91.5245638,41.4996226 Z M13.432953,41.4996226 L0.000402684564,33.5709777 L0.000402684564,84.6924185 C0.000402684564,88.6958491 2.10442953,92.4214065 5.49604027,94.4241509 L48.801745,119.984357 L48.801745,104.128096 L13.432953,83.2515952 L13.432953,41.4996226 Z M52.4792617,14.1136878 L87.8490604,34.9901887 L101.280604,27.0615437 L57.9748993,1.50133791 C54.5832886,-0.501406518 50.3742282,-0.501406518 46.9826174,1.50133791 L3.67590604,27.0615437 L17.1094631,34.9901887 L52.4792617,14.1136878 Z" id="Fill-1" fill="#122039" mask="url(#mask-2)"></path>
            <path d="M67.0644966,31.3788679 L52.4792617,39.9877873 L37.8910067,31.3788679 L24.4594631,39.3064837 L46.9836242,52.6011664 C50.3752349,54.6018525 54.5842953,54.6018525 57.9748993,52.6011664 L80.4980537,39.3075129 L67.0644966,31.3788679 Z" id="Path" fill="#FCB811" mask="url(#mask-2)"></path>
            <path d="M56.1547651,95.4512521 L69.5873154,87.5236364 L69.5873154,70.3047684 L84.173557,61.6958491 L84.173557,45.8385592 L61.6504027,59.1322127 C58.2587919,61.133928 56.1547651,64.8594854 56.1547651,68.8639451 L56.1547651,95.4512521 Z" id="Path" fill="#00BEDE" mask="url(#mask-2)"></path>
            <path d="M20.7839597,61.6958491 L35.3702013,70.3047684 L35.3702013,87.5236364 L48.801745,95.4512521 L48.801745,68.8639451 C48.801745,64.8594854 46.6987248,61.133928 43.3061074,59.1322127 L20.7839597,45.8385592 L20.7839597,61.6958491 Z" id="Path" fill="#EC0A6E" mask="url(#mask-2)"></path>
        </g>
    </g>
</svg>